<svg width="43" height="43" viewBox="0 0 43 43" fill="none" xmlns="http://www.w3.org/2000/svg">
<g id="upload-cloud" clip-path="url(#clip0_53_36)">
<path id="Vector" d="M28.6863 28.2838L21.7387 21.3362L14.791 28.2838" stroke="#E4E4E4" stroke-width="1.06887" stroke-linecap="round" stroke-linejoin="round"/>
<path id="Vector_2" d="M21.7383 21.3362V36.9684" stroke="#E4E4E4" stroke-width="2.67218" stroke-linecap="round" stroke-linejoin="round"/>
<path id="Vector_3" d="M36.3111 32.4349C38.0052 31.5113 39.3434 30.0499 40.1147 28.2812C40.886 26.5126 41.0463 24.5375 40.5704 22.6676C40.0944 20.7978 39.0094 19.1397 37.4864 17.955C35.9634 16.7703 34.0893 16.1265 32.1599 16.1252H29.9713C29.4456 14.0917 28.4657 12.2039 27.1053 10.6036C25.745 9.00327 24.0395 7.7322 22.1172 6.8859C20.1949 6.0396 18.1057 5.6401 16.0068 5.71743C13.9078 5.79476 11.8537 6.34692 9.99887 7.33238C8.14403 8.31785 6.53674 9.71098 5.29781 11.407C4.05889 13.1031 3.22058 15.058 2.84591 17.1246C2.47124 19.1913 2.56996 21.316 3.13465 23.3391C3.69933 25.3621 4.71529 27.2308 6.10614 28.8047" stroke="#E4E4E4" stroke-width="2.67218" stroke-linecap="round" stroke-linejoin="round"/>
<path id="Vector_4" d="M28.6863 28.2838L21.7387 21.3362L14.791 28.2838" stroke="#E4E4E4" stroke-width="2.67218" stroke-linecap="round" stroke-linejoin="round"/>
</g>
<defs>
<clipPath id="clip0_53_36">
<rect width="41.686" height="41.686" fill="white" transform="translate(0.894531 0.493164)"/>
</clipPath>
</defs>
</svg>
